# 3ds Max Wavefront OBJ Exporter v0.97b - (c)2007 guruware
# 创建的文件:11.01.2015 17:32:51

mtllib MyGoldCoin.mtl

#
# object Cylinder01
#

v  19.1511 16.0697 -2.5000
v  23.4923 8.5505 -2.5000
v  25.0000 0.0000 -2.5000
v  0.0000 0.0000 -2.5000
v  4.3412 24.6202 -2.5000
v  12.5000 21.6506 -2.5000
v  -12.5000 21.6506 -2.5000
v  -4.3412 24.6202 -2.5000
v  -23.4923 8.5505 -2.5000
v  -19.1511 16.0697 -2.5000
v  -23.4923 -8.5505 -2.5000
v  -25.0000 0.0000 -2.5000
v  -12.5000 -21.6506 -2.5000
v  -19.1511 -16.0697 -2.5000
v  4.3412 -24.6202 -2.5000
v  -4.3412 -24.6202 -2.5000
v  19.1511 -16.0697 -2.5000
v  12.5000 -21.6506 -2.5000
v  23.4923 -8.5505 -2.5000
v  23.4923 8.5505 2.5000
v  25.0000 0.0000 2.5000
v  19.1511 16.0697 2.5000
v  12.5000 21.6506 2.5000
v  4.3412 24.6202 2.5000
v  -4.3412 24.6202 2.5000
v  -12.5000 21.6506 2.5000
v  -19.1511 16.0697 2.5000
v  -23.4923 8.5505 2.5000
v  -25.0000 0.0000 2.5000
v  -23.4923 -8.5505 2.5000
v  -19.1511 -16.0697 2.5000
v  -12.5000 -21.6506 2.5000
v  -4.3412 -24.6202 2.5000
v  4.3412 -24.6202 2.5000
v  12.5000 -21.6506 2.5000
v  19.1511 -16.0697 2.5000
v  23.4923 -8.5505 2.5000
v  0.0000 0.0000 2.5000
# 38 vertices

vn 0.0000 0.0000 -1.0000
vn 0.9397 0.3420 -0.0000
vn 1.0000 0.0000 -0.0000
vn 1.0000 -0.0000 -0.0000
vn 0.7660 0.6428 -0.0000
vn 0.5000 0.8660 -0.0000
vn 0.1737 0.9848 -0.0000
vn -0.1737 0.9848 -0.0000
vn -0.5000 0.8660 -0.0000
vn -0.7660 0.6428 -0.0000
vn -0.9397 0.3420 -0.0000
vn -1.0000 0.0000 -0.0000
vn -1.0000 -0.0000 -0.0000
vn -0.9397 -0.3420 -0.0000
vn -0.7660 -0.6428 -0.0000
vn -0.5000 -0.8660 -0.0000
vn -0.1737 -0.9848 -0.0000
vn 0.1737 -0.9848 -0.0000
vn 0.5000 -0.8660 -0.0000
vn 0.7660 -0.6428 -0.0000
vn 0.9397 -0.3420 -0.0000
vn 0.0000 0.0000 1.0000
# 22 vertex normals

vt 0.1282 0.8167 0.0000
vt 0.0428 0.6682 0.0000
vt 0.0132 0.4994 0.0000
vt 0.5047 0.4994 0.0000
vt 0.4193 0.9855 0.0000
vt 0.2589 0.9269 0.0000
vt 0.7504 0.9269 0.0000
vt 0.5900 0.9855 0.0000
vt 0.9665 0.6682 0.0000
vt 0.8811 0.8167 0.0000
vt 0.9665 0.3305 0.0000
vt 0.9961 0.4994 0.0000
vt 0.7504 0.0718 0.0000
vt 0.8811 0.1820 0.0000
vt 0.4193 0.0132 0.0000
vt 0.5900 0.0132 0.0000
vt 0.1282 0.1820 0.0000
vt 0.2589 0.0718 0.0000
vt 0.0428 0.3305 0.0000
vt 0.6728 0.5429 0.0000
vt 0.6728 0.5293 0.0000
vt 0.6747 0.5293 0.0000
vt 0.6747 0.5429 0.0000
vt 0.6711 0.5429 0.0000
vt 0.6711 0.5293 0.0000
vt 0.6283 0.5456 0.0000
vt 0.6283 0.5288 0.0000
vt 0.6300 0.5288 0.0000
vt 0.6300 0.5456 0.0000
vt 0.6262 0.5456 0.0000
vt 0.6262 0.5288 0.0000
vt 0.6240 0.5456 0.0000
vt 0.6240 0.5288 0.0000
vt 0.6219 0.5456 0.0000
vt 0.6219 0.5288 0.0000
vt 0.6202 0.5456 0.0000
vt 0.6202 0.5288 0.0000
vt 0.6569 0.5442 0.0000
vt 0.6569 0.5624 0.0000
vt 0.6623 0.5624 0.0000
vt 0.6623 0.5442 0.0000
vt 0.6508 0.5442 0.0000
vt 0.6508 0.5624 0.0000
vt 0.6447 0.5442 0.0000
vt 0.6447 0.5624 0.0000
vt 0.6393 0.5442 0.0000
vt 0.6393 0.5624 0.0000
vt 0.6664 0.5437 0.0000
vt 0.6664 0.5714 0.0000
vt 0.6714 0.5714 0.0000
vt 0.6714 0.5437 0.0000
vt 0.6602 0.5437 0.0000
vt 0.6602 0.5714 0.0000
vt 0.6536 0.5437 0.0000
vt 0.6536 0.5714 0.0000
vt 0.6475 0.5437 0.0000
vt 0.6475 0.5714 0.0000
vt 0.6425 0.5437 0.0000
vt 0.6425 0.5714 0.0000
vt 0.6766 0.5429 0.0000
vt 0.6766 0.5293 0.0000
vt 0.6782 0.5293 0.0000
vt 0.6782 0.5429 0.0000
vt 0.0428 0.6673 0.0000
vt 0.0132 0.4990 0.0000
vt 0.0428 0.3307 0.0000
vt 0.5047 0.4990 0.0000
vt 0.1282 0.1827 0.0000
vt 0.2589 0.0729 0.0000
vt 0.4193 0.0145 0.0000
vt 0.5900 0.0145 0.0000
vt 0.7504 0.0729 0.0000
vt 0.8811 0.1827 0.0000
vt 0.9665 0.3307 0.0000
vt 0.9961 0.4990 0.0000
vt 0.9665 0.6673 0.0000
vt 0.8811 0.8153 0.0000
vt 0.7504 0.9252 0.0000
vt 0.5900 0.9836 0.0000
vt 0.4193 0.9836 0.0000
vt 0.2589 0.9252 0.0000
vt 0.1282 0.8153 0.0000
# 82 texture coords

g Cylinder01
usemtl default
s 1
f 1/1/1 2/2/1 3/3/1 
f 3/3/1 4/4/1 1/1/1 
f 5/5/1 6/6/1 1/1/1 
f 1/1/1 4/4/1 5/5/1 
f 7/7/1 8/8/1 5/5/1 
f 5/5/1 4/4/1 7/7/1 
f 9/9/1 10/10/1 7/7/1 
f 7/7/1 4/4/1 9/9/1 
f 11/11/1 12/12/1 9/9/1 
f 9/9/1 4/4/1 11/11/1 
f 13/13/1 14/14/1 11/11/1 
f 11/11/1 4/4/1 13/13/1 
f 15/15/1 16/16/1 13/13/1 
f 13/13/1 4/4/1 15/15/1 
f 17/17/1 18/18/1 15/15/1 
f 15/15/1 4/4/1 17/17/1 
f 3/3/1 19/19/1 17/17/1 
f 17/17/1 4/4/1 3/3/1 
s 8
f 2/20/2 20/21/2 21/22/3 
f 21/22/3 3/23/4 2/20/2 
f 1/24/5 22/25/5 20/21/2 
f 20/21/2 2/20/2 1/24/5 
f 6/26/6 23/27/6 22/28/5 
f 22/28/5 1/29/5 6/26/6 
f 5/30/7 24/31/7 23/27/6 
f 23/27/6 6/26/6 5/30/7 
f 8/32/8 25/33/8 24/31/7 
f 24/31/7 5/30/7 8/32/8 
f 7/34/9 26/35/9 25/33/8 
f 25/33/8 8/32/8 7/34/9 
f 10/36/10 27/37/10 26/35/9 
f 26/35/9 7/34/9 10/36/10 
f 9/38/11 28/39/11 27/40/10 
f 27/40/10 10/41/10 9/38/11 
f 12/42/12 29/43/13 28/39/11 
f 28/39/11 9/38/11 12/42/12 
f 11/44/14 30/45/14 29/43/13 
f 29/43/13 12/42/12 11/44/14 
f 14/46/15 31/47/15 30/45/14 
f 30/45/14 11/44/14 14/46/15 
f 13/48/16 32/49/16 31/50/15 
f 31/50/15 14/51/15 13/48/16 
f 16/52/17 33/53/17 32/49/16 
f 32/49/16 13/48/16 16/52/17 
f 15/54/18 34/55/18 33/53/17 
f 33/53/17 16/52/17 15/54/18 
f 18/56/19 35/57/19 34/55/18 
f 34/55/18 15/54/18 18/56/19 
f 17/58/20 36/59/20 35/57/19 
f 35/57/19 18/56/19 17/58/20 
f 19/60/21 37/61/21 36/62/20 
f 36/62/20 17/63/20 19/60/21 
f 3/23/4 21/22/3 37/61/21 
f 37/61/21 19/60/21 3/23/4 
s 1
f 37/64/22 21/65/22 20/66/22 
f 20/66/22 38/67/22 37/64/22 
f 20/66/22 22/68/22 23/69/22 
f 23/69/22 38/67/22 20/66/22 
f 23/69/22 24/70/22 25/71/22 
f 25/71/22 38/67/22 23/69/22 
f 25/71/22 26/72/22 27/73/22 
f 27/73/22 38/67/22 25/71/22 
f 27/73/22 28/74/22 29/75/22 
f 29/75/22 38/67/22 27/73/22 
f 29/75/22 30/76/22 31/77/22 
f 31/77/22 38/67/22 29/75/22 
f 31/77/22 32/78/22 33/79/22 
f 33/79/22 38/67/22 31/77/22 
f 33/79/22 34/80/22 35/81/22 
f 35/81/22 38/67/22 33/79/22 
f 35/81/22 36/82/22 37/64/22 
f 37/64/22 38/67/22 35/81/22 
# 72 faces

